<svg width="32" height="32" viewBox="0 0 32 32" fill="none" xmlns="http://www.w3.org/2000/svg">
<rect width="32" height="32" rx="16" fill="#171717" style="fill:#171717;fill:color(display-p3 0.0902 0.0902 0.0902);fill-opacity:1;"/>
<path d="M24.68 17.32C24.68 18.52 24.4533 19.56 24 20.44C23.5467 21.32 22.86 22 21.94 22.48C21.0333 22.96 19.8933 23.2 18.52 23.2C16.5467 23.2 15.04 22.7 14 21.7C12.9733 20.6867 12.46 19.2533 12.46 17.4V8.72H16.34V17.1C16.34 18.1133 16.5267 18.8467 16.9 19.3C17.2867 19.7533 17.8467 19.98 18.58 19.98C19.1133 19.98 19.54 19.88 19.86 19.68C20.1933 19.48 20.4333 19.1667 20.58 18.74C20.74 18.3133 20.82 17.76 20.82 17.08V8.72H24.68V17.32Z" fill="white" style="fill:white;fill-opacity:1;"/>
<rect x="9" y="9" width="14" height="2" transform="rotate(90 9 9)" fill="url(#paint0_linear_417_540)" style=""/>
<defs>
<linearGradient id="paint0_linear_417_540" x1="9" y1="10" x2="23" y2="10" gradientUnits="userSpaceOnUse">
<stop stop-color="#FF0000" style="stop-color:#FF0000;stop-color:color(display-p3 1.0000 0.0011 0.0011);stop-opacity:1;"/>
<stop offset="0.298077" stop-color="#FFC400" style="stop-color:#FFC400;stop-color:color(display-p3 1.0000 0.7667 0.0000);stop-opacity:1;"/>
<stop offset="0.5625" stop-color="white" style="stop-color:white;stop-opacity:1;"/>
<stop offset="0.807692" stop-color="#6AD2FF" style="stop-color:#6AD2FF;stop-color:color(display-p3 0.4176 0.8253 1.0000);stop-opacity:1;"/>
</linearGradient>
</defs>
</svg>
